# xmcd CD database file generated by OrangeCD 5.2
#
# Track frame offsets:
#	150
#	15890
#	34614
#	52746
#	69133
#	87248
#	105231
#	125596
#	149133
#	170430
#	197896
#	221358
#
# Disc length: 3138 seconds
#
# Revision: 0
# Processed by: cddbd v1.5.1PL0 Copyright (c) Steve Scherf et al.
# Submitted via: OrangeCD 5.2
#
DISCID=970c400c
DTITLE=Doug Deming and the Jewel Tones - Double Down
DYEAR=1900
DGENRE=Blues
TTITLE0=Goodbye Baby
TTITLE1=Blackjack
TTITLE2=Bad for You
TTITLE3=Make it Last
TTITLE4=You Don't Even Care
TTITLE5=Let Me Be
TTITLE6=HDF
TTITLE7=On the Midnight Shift
TTITLE8=Mr. Blues
TTITLE9=It's a Crime
TTITLE10=All About the Digits
TTITLE11=Double Down
EXTD=
EXTT0=
EXTT1=
EXTT2=
EXTT3=
EXTT4=
EXTT5=
EXTT6=
EXTT7=
EXTT8=
EXTT9=
EXTT10=
EXTT11=
PLAYORDER=
